<?xml version="1.0" encoding="UTF-8"?>
<svg version="1.1" xmlns="http://www.w3.org/2000/svg" width="495" height="241">
<path d="M0 0 C0.90809921 -0.00095673 1.81619843 -0.00191345 2.7518158 -0.00289917 C4.66209991 -0.00357657 6.57238638 -0.00175311 8.48266602 0.00244141 C11.39669993 0.00780212 14.31058017 0.00247824 17.22460938 -0.00390625 C19.08723992 -0.00324551 20.94987037 -0.00196444 22.8125 0 C24.11115746 -0.00303635 24.11115746 -0.00303635 25.43605042 -0.00613403 C29.85107095 0.01088289 33.99317269 0.24397145 38.33984375 1.1328125 C38.86418444 6.58336639 39.14677417 11.69948099 38.33984375 17.1328125 C36.25733501 19.60954101 34.52361162 20.65585586 31.6015625 21.9921875 C28.93144849 23.3387735 27.84329024 24.56502136 26.33984375 27.1328125 C25.80627859 32.64631913 25.96378051 36.5290899 29.33984375 41.1328125 C32.25426725 43.09126376 35.17502015 44.5733342 38.33984375 46.1328125 C38.33984375 51.4128125 38.33984375 56.6928125 38.33984375 62.1328125 C31.30079331 63.07135256 24.43711803 63.24089282 17.33984375 63.1328125 C17.09234375 64.3909375 16.84484375 65.6490625 16.58984375 66.9453125 C15.88718458 69.72646697 15.52016009 70.94006055 13.52734375 73.0703125 C9.3195542 75.11409599 7.29375105 75.4288527 2.71484375 74.0078125 C-0.87730729 72.01217304 -2.10575437 70.8816641 -3.66015625 67.1328125 C-3.66015625 65.8128125 -3.66015625 64.4928125 -3.66015625 63.1328125 C-10.59015625 63.1328125 -17.52015625 63.1328125 -24.66015625 63.1328125 C-24.73439287 55.6946836 -24.78880026 48.25677108 -24.82495117 40.81835938 C-24.84002411 38.28869876 -24.86048586 35.75906421 -24.88647461 33.22949219 C-24.92292241 29.59042927 -24.93989795 25.95171234 -24.953125 22.3125 C-24.96860886 21.18415741 -24.98409271 20.05581482 -25.00004578 18.89328003 C-25.00125111 13.25130776 -24.97957412 8.94534399 -21.66015625 4.1328125 C-15.57478829 -0.76928947 -7.43434753 -0.01742273 0 0 Z " fill="#0E9287" transform="translate(61.66015625,17.8671875)"/>
<path d="M0 0 C0.99838898 -0.00960754 1.99677795 -0.01921509 3.02542114 -0.02911377 C4.11386322 -0.03336365 5.2023053 -0.03761353 6.32373047 -0.04199219 C7.4377121 -0.04769226 8.55169373 -0.05339233 9.69943237 -0.05926514 C12.06507411 -0.06873523 14.43072915 -0.07525705 16.79638672 -0.07910156 C20.40469734 -0.08877013 24.0124296 -0.11975984 27.62060547 -0.15136719 C29.91747708 -0.15790065 32.21435278 -0.16314977 34.51123047 -0.16699219 C36.12567551 -0.18551239 36.12567551 -0.18551239 37.7727356 -0.20440674 C43.66421713 -0.18702653 48.29928055 -0.09914173 53.31591797 3.16113281 C57.2403221 9.13235757 56.70471069 15.48751511 56.60888672 22.43847656 C56.60464188 23.60496231 56.60039703 24.77144806 56.59602356 25.97328186 C56.57929319 29.68197155 56.54165018 33.39010863 56.50341797 37.09863281 C56.48836389 39.62010931 56.47467676 42.14159437 56.46240234 44.66308594 C56.42940807 50.82928863 56.37926443 56.99517123 56.31591797 63.16113281 C53.54934707 63.26400787 50.78659478 63.33962128 48.01904297 63.39941406 C47.2354541 63.43135864 46.45186523 63.46330322 45.64453125 63.49621582 C39.82428328 63.59074061 39.82428328 63.59074061 37.20581055 61.37792969 C36.06780761 59.35199684 35.19334437 57.31019169 34.31591797 55.16113281 C30.51310337 51.68427375 26.63816023 51.69641766 21.68701172 51.88769531 C18.39578863 52.26724328 16.71476625 52.8349769 14.31591797 55.16113281 C13.03565268 57.79972834 12.19354798 60.34347855 11.31591797 63.16113281 C5.70591797 63.16113281 0.09591797 63.16113281 -5.68408203 63.16113281 C-5.68408203 56.56113281 -5.68408203 49.96113281 -5.68408203 43.16113281 C-7.99408203 42.50113281 -10.30408203 41.84113281 -12.68408203 41.16113281 C-15.87288247 38.83435974 -17.513897 36.06878631 -18.24658203 32.16113281 C-17.4034993 27.66469159 -15.48661188 24.40037208 -11.68408203 21.78613281 C-9.68408203 21.16113281 -9.68408203 21.16113281 -5.68408203 21.16113281 C-5.68931885 20.56051025 -5.69455566 19.9598877 -5.69995117 19.34106445 C-5.72066217 16.63526443 -5.73372328 13.92948105 -5.74658203 11.22363281 C-5.75496094 10.27810547 -5.76333984 9.33257812 -5.77197266 8.35839844 C-5.77519531 7.45927734 -5.77841797 6.56015625 -5.78173828 5.63378906 C-5.7869751 4.80113525 -5.79221191 3.96848145 -5.79760742 3.1105957 C-5.57474014 -0.71649087 -3.29583165 0.02549516 0 0 Z " fill="#0E756C" transform="translate(109.68408203125,17.8388671875)"/>
<path d="M0 0 C2.91997848 0.84525693 3.67887671 1.47014657 5.25 4.0625 C6 7 6 7 6 16 C11.94 18.31 17.88 20.62 24 23 C22.87466941 29.75198355 22.87466941 29.75198355 21.48120117 33.2578125 C21.17385544 34.03882324 20.8665097 34.81983398 20.54985046 35.62451172 C20.2175795 36.44967285 19.88530853 37.27483398 19.54296875 38.125 C19.19873367 38.99012207 18.8544986 39.85524414 18.49983215 40.74658203 C17.77233508 42.5698836 17.04177735 44.39196659 16.30834961 46.21289062 C15.19267063 48.98714268 14.09087225 51.76662684 12.99023438 54.546875 C12.27947811 56.3232499 11.56791605 58.09930264 10.85546875 59.875 C10.52927048 60.70016113 10.2030722 61.52532227 9.86698914 62.37548828 C4.64269826 75.25490355 4.64269826 75.25490355 -1 78 C-9.6395512 78.9579606 -16.20603901 75.86163405 -24 72.4375 C-25.28992067 71.88478469 -26.58053518 71.33368594 -27.87182617 70.78417969 C-30.41562176 69.69978119 -32.9559845 68.60793599 -35.49365234 67.50927734 C-40.07840661 65.5358091 -44.69087097 63.63505765 -49.3125 61.75 C-50.6420909 61.20352341 -51.97153926 60.65669974 -53.30078125 60.109375 C-54.19152344 59.74328125 -55.08226563 59.3771875 -56 59 C-54.13236819 53.27789404 -52.14710968 47.62338249 -50 42 C-49.41992188 41.98582031 -48.83984375 41.97164062 -48.2421875 41.95703125 C-42.15013073 41.58507399 -39.14604547 40.55053771 -35 36 C-32.90061559 31.89250876 -32.69861976 28.36029757 -33.37109375 23.8828125 C-34.37398866 20.88035694 -36.77087431 19.17046449 -39 17 C-38.63891011 13.37074061 -37.40151152 10.12531962 -36.0625 6.75 C-35.55396484 5.44289063 -35.55396484 5.44289063 -35.03515625 4.109375 C-34 2 -34 2 -32 1 C-30.02880859 1.43725586 -30.02880859 1.43725586 -27.6484375 2.21484375 C-26.79765625 2.48876953 -25.946875 2.76269531 -25.0703125 3.04492188 C-24.18085938 3.33947266 -23.29140625 3.63402344 -22.375 3.9375 C-21.4778125 4.22818359 -20.580625 4.51886719 -19.65625 4.81835938 C-17.43526435 5.53899834 -15.21675021 6.26645605 -13 7 C-12.731875 6.21625 -12.46375 5.4325 -12.1875 4.625 C-9.70877338 -0.85429043 -5.31705372 -0.50485156 0 0 Z " fill="#0D9387" transform="translate(162,90)"/>
<path d="M0 0 C5.61 0 11.22 0 17 0 C18.171875 2.24609375 19.34375 4.4921875 20.515625 6.73828125 C22.74557381 10.13601905 24.95418414 11.67463507 28.8125 12.875 C33.48176242 13.05810833 37.03832077 11.80535004 40.51953125 8.6015625 C43.0517128 5.72640535 44.05937517 3.76249933 45 0 C50.94 0 56.88 0 63 0 C63 6.93 63 13.86 63 21 C65.64 21.33 68.28 21.66 71 22 C74.41285152 24.81560251 74.92539961 26.5727432 75.6875 30.9375 C75.51145667 34.50576285 74.41598694 36.09546948 71.8125 38.5 C68.82136508 40.95025432 66.8365487 41.26504654 63 41 C63.01160156 42.19238281 63.02320313 43.38476562 63.03515625 44.61328125 C63.04453592 46.17968594 63.05363593 47.74609231 63.0625 49.3125 C63.07087891 50.09818359 63.07925781 50.88386719 63.08789062 51.69335938 C63.09111328 52.45068359 63.09433594 53.20800781 63.09765625 53.98828125 C63.10289307 54.68477783 63.10812988 55.38127441 63.11352539 56.09887695 C63 58 63 58 62 61 C59.66495621 62.1675219 58.17362897 62.17380753 55.56958008 62.25292969 C54.65134964 62.28255798 53.7331192 62.31218628 52.7870636 62.3427124 C51.79127792 62.36883606 50.79549225 62.39495972 49.76953125 62.421875 C48.74574875 62.44977112 47.72196625 62.47766724 46.66716003 62.50640869 C44.49586922 62.56287747 42.32450246 62.61648619 40.15307617 62.66748047 C36.84299646 62.74924667 33.53405024 62.85289405 30.22460938 62.95703125 C28.11461655 63.00917462 26.00459062 63.05999804 23.89453125 63.109375 C22.90886673 63.14359558 21.92320221 63.17781616 20.90766907 63.21307373 C13.57868553 63.34662612 8.8119685 62.44519 3.125 57.5 C0.11072878 53.95379857 -0.12441076 51.38164576 -0.11352539 46.88598633 C-0.11344986 45.84513382 -0.11337433 44.80428131 -0.11329651 43.73188782 C-0.10813522 42.60993515 -0.10297394 41.48798248 -0.09765625 40.33203125 C-0.0962413 39.18208176 -0.09482635 38.03213226 -0.09336853 36.84733582 C-0.08776429 33.16903092 -0.07521104 29.49078655 -0.0625 25.8125 C-0.05748555 23.32096442 -0.05292255 20.82942789 -0.04882812 18.33789062 C-0.03779347 12.22523704 -0.02052595 6.11262879 0 0 Z " fill="#0F756C" transform="translate(37,85)"/>
<path d="M0 0 C5.61 0 11.22 0 17 0 C20.96 11.22 24.92 22.44 29 34 C29.33 22.78 29.66 11.56 30 0 C34.29 0 38.58 0 43 0 C43 20.46 43 40.92 43 62 C37.72 62 32.44 62 27 62 C23.80295952 54.21271332 20.97565195 46.33815937 18.25 38.375 C16.14625 32.249375 16.14625 32.249375 14 26 C14 37.88 14 49.76 14 62 C9.38 62 4.76 62 0 62 C0 41.54 0 21.08 0 0 Z " fill="#109287" transform="translate(278,63)"/>
<path d="M0 0 C4.62 0 9.24 0 14 0 C14.33 7.92 14.66 15.84 15 24 C18.37866318 17.24267364 20.69774119 11.98855227 21.5625 4.625 C22 1 22 1 23 0 C25.53049402 -0.07313567 28.03304837 -0.09247527 30.5625 -0.0625 C31.27341797 -0.05798828 31.98433594 -0.05347656 32.71679688 -0.04882812 C34.47790013 -0.03700864 36.23896036 -0.01907263 38 0 C37.95573852 11.24241677 33.85945855 20.92812365 26 29 C25.01 29.66 24.02 30.32 23 31 C23.90492188 31.22042969 23.90492188 31.22042969 24.828125 31.4453125 C25.62734375 31.66960937 26.4265625 31.89390625 27.25 32.125 C28.03890625 32.33382812 28.8278125 32.54265625 29.640625 32.7578125 C32.94828366 34.49926193 34.57976471 36.62548774 36 40 C36.87480224 43.76366728 37.32907509 47.53715524 37.75 51.375 C37.93755859 52.90833984 37.93755859 52.90833984 38.12890625 54.47265625 C38.43358902 56.9804298 38.72347693 59.48899212 39 62 C36.52076199 62.02685095 34.0418116 62.04676547 31.5625 62.0625 C30.85544922 62.07087891 30.14839844 62.07925781 29.41992188 62.08789062 C27.61306441 62.09653588 25.80612397 62.05220011 24 62 C22.41144442 60.41144442 22.66853828 58.6136527 22.45703125 56.4140625 C22.35197266 55.48335937 22.24691406 54.55265625 22.13867188 53.59375 C21.92229552 51.6243365 21.72417914 49.65282589 21.54492188 47.6796875 C21.43341797 46.74640625 21.32191406 45.813125 21.20703125 44.8515625 C21.1191333 43.99385254 21.03123535 43.13614258 20.94067383 42.25244141 C19.93302451 39.1502592 19.93302451 39.1502592 14 37 C14 45.25 14 53.5 14 62 C9.38 62 4.76 62 0 62 C0 41.54 0 21.08 0 0 Z " fill="#109287" transform="translate(328,63)"/>
<path d="M0 0 C4.335628 2.48554555 6.88624855 5.21523934 8.35546875 10.08203125 C8.57320763 13.45951573 8.49300392 16.68949712 8.35546875 20.08203125 C1.92046875 20.57703125 1.92046875 20.57703125 -4.64453125 21.08203125 C-5.03515625 18.80338542 -5.42578125 16.52473958 -5.81640625 14.24609375 C-6.46202386 11.90494033 -6.46202386 11.90494033 -8.72265625 10.79296875 C-9.356875 10.55835937 -9.99109375 10.32375 -10.64453125 10.08203125 C-11.63453125 10.74203125 -12.62453125 11.40203125 -13.64453125 12.08203125 C-14.39590293 14.95275485 -14.39590293 14.95275485 -13.64453125 18.08203125 C-11.02428273 20.77123368 -8.29617447 22.64136662 -5.1953125 24.73828125 C1.03411184 28.98434627 6.40029471 32.8868249 9.35546875 40.08203125 C10.01057478 45.48284723 10.29833246 51.14959305 7.73046875 56.08203125 C4.66406064 59.95538887 1.72012916 62.33529639 -3.01953125 63.83203125 C-10.09488652 64.50587461 -16.21038501 64.40327626 -22.64453125 61.08203125 C-25.23816566 58.77178683 -27.08528681 56.20052013 -28.64453125 53.08203125 C-28.71518742 51.0414812 -28.72875101 48.99868868 -28.70703125 46.95703125 C-28.69800781 45.86132812 -28.68898438 44.765625 -28.6796875 43.63671875 C-28.66808594 42.79367188 -28.65648437 41.950625 -28.64453125 41.08203125 C-27.06223065 40.74382959 -25.4786375 40.41167186 -23.89453125 40.08203125 C-23.0128125 39.89640625 -22.13109375 39.71078125 -21.22265625 39.51953125 C-18.64453125 39.08203125 -18.64453125 39.08203125 -14.64453125 39.08203125 C-14.68578125 40.13390625 -14.72703125 41.18578125 -14.76953125 42.26953125 C-14.65135483 45.87391193 -14.52946534 48.0302332 -12.64453125 51.08203125 C-10.09677819 51.97589289 -10.09677819 51.97589289 -7.64453125 52.08203125 C-5.32133256 49.21474491 -5.32133256 49.21474491 -5.70703125 45.70703125 C-7.38004416 39.23804799 -11.9235394 36.85973839 -17.14453125 33.14453125 C-21.96980473 29.7044104 -25.95055316 26.46998742 -28.64453125 21.08203125 C-29.14735957 15.57564902 -29.35774654 10.67963349 -27.08203125 5.58203125 C-19.76999608 -1.917492 -10.05771929 -3.49123196 0 0 Z " fill="#0F9286" transform="translate(398.64453125,62.91796875)"/>
<path d="M0 0 C5.61 0 11.22 0 17 0 C21.28571429 17 21.28571429 17 23 25 C24.89453424 19.7942978 26.02431209 14.53875386 27.125 9.125 C27.30675781 8.24585937 27.48851562 7.36671875 27.67578125 6.4609375 C28.12041864 4.30795644 28.56065556 2.15406739 29 0 C34.61 0 40.22 0 46 0 C44.3286171 4.75091868 42.65658854 9.50159991 40.98291016 14.25170898 C40.41417017 15.86648383 39.84580646 17.48139126 39.27783203 19.09643555 C38.45965752 21.42271631 37.64011474 23.74851119 36.8203125 26.07421875 C36.56814972 26.79212082 36.31598694 27.51002289 36.05618286 28.24967957 C35.05526456 31.08582468 34.04749042 33.89058659 32.84960938 36.65039062 C31.86870177 39.36310753 31.68245443 41.64010942 31.5859375 44.51953125 C31.54726563 45.54111328 31.50859375 46.56269531 31.46875 47.61523438 C31.42234375 49.19788086 31.42234375 49.19788086 31.375 50.8125 C31.33632813 51.88693359 31.29765625 52.96136719 31.2578125 54.06835938 C31.16381762 56.71196539 31.08083151 59.35595876 31 62 C25.72 62 20.44 62 15 62 C15.09023438 60.76894531 15.18046875 59.53789063 15.2734375 58.26953125 C15.86385827 39.7056449 9.14409451 24.13266718 2.10877991 7.28012085 C0 2.20198473 0 2.20198473 0 0 Z " fill="#119287" transform="translate(409,63)"/>
<path d="M0 0 C4.62 0 9.24 0 14 0 C14 16.5 14 33 14 50 C19.28 50 24.56 50 30 50 C30 53.96 30 57.92 30 62 C20.1 62 10.2 62 0 62 C0 41.54 0 21.08 0 0 Z " fill="#109187" transform="translate(224,63)"/>
<path d="M0 0 C4.95 0 9.9 0 15 0 C15 20.46 15 40.92 15 62 C10.05 62 5.1 62 0 62 C0 41.54 0 21.08 0 0 Z " fill="#149187" transform="translate(257,63)"/>
<path d="M0 0 C1.98 0 3.96 0 6 0 C6.99 2.97 7.98 5.94 9 9 C9.99 6.03 10.98 3.06 12 0 C13.65 0 15.3 0 17 0 C17.99 2.97 18.98 5.94 20 9 C20.99 6.03 21.98 3.06 23 0 C24.98 0 26.96 0 29 0 C27.68882339 7.11120489 25.98279484 14.04699943 24 21 C21.69 21 19.38 21 17 21 C16.34 18.69 15.68 16.38 15 14 C13.25372522 16.61941217 12.61277612 18.03824877 12 21 C9.69 21 7.38 21 5 21 C4.16193384 18.06377536 3.32937556 15.12617933 2.5 12.1875 C2.26152344 11.35412109 2.02304687 10.52074219 1.77734375 9.66210938 C1.43896484 8.45844727 1.43896484 8.45844727 1.09375 7.23046875 C0.88427734 6.49207764 0.67480469 5.75368652 0.45898438 4.99291992 C0 3 0 3 0 0 Z " fill="#030304" transform="translate(426,185)"/>
<path d="M0 0 C5 0 5 0 7.01953125 1.96875 C7.61121094 2.8040625 8.20289063 3.639375 8.8125 4.5 C9.41707031 5.3353125 10.02164063 6.170625 10.64453125 7.03125 C11.09183594 7.6809375 11.53914062 8.330625 12 9 C12.33 6.03 12.66 3.06 13 0 C14.98 0 16.96 0 19 0 C19 6.93 19 13.86 19 21 C13 21 13 21 11.1015625 19.25 C10.37066406 18.13625 10.37066406 18.13625 9.625 17 C8.87089844 15.88625 8.87089844 15.88625 8.1015625 14.75 C7.73804688 14.1725 7.37453125 13.595 7 13 C6.67 15.64 6.34 18.28 6 21 C4.02 21 2.04 21 0 21 C0 14.07 0 7.14 0 0 Z " fill="#040404" transform="translate(176,185)"/>
<path d="M0 0 C3.03965634 1.8108591 4.60422231 2.90400023 5.8125 6.25 C5.874375 6.8275 5.93625 7.405 6 8 C4.02 8 2.04 8 0 8 C-0.33 7.01 -0.66 6.02 -1 5 C-3.47266765 5.34444881 -3.47266765 5.34444881 -6 6 C-7.14352916 8.28705831 -7.10334439 9.59264762 -7.0625 12.125 C-7.041875 13.40375 -7.02125 14.6825 -7 16 C-5.33388095 16.042721 -3.66617115 16.04063832 -2 16 C-1.67 15.67 -1.34 15.34 -1 15 C-1.99 14.67 -2.98 14.34 -4 14 C-4 12.68 -4 11.36 -4 10 C-0.7 10 2.6 10 6 10 C6.33419641 13.59261138 6.21511245 15.59666415 4.5 18.8125 C1.58234502 21.36544811 -0.17319546 21.8888747 -3.96875 22.13671875 C-7.22138663 21.91779128 -9.34549308 20.83287382 -12 19 C-14.39100736 16.06558188 -14.41155989 12.75496193 -14.328125 9.03515625 C-13.79173147 5.70823925 -12.11151942 3.54624401 -10 1 C-6.79337112 -0.60331444 -3.47896647 -0.48652213 0 0 Z " fill="#030303" transform="translate(370,185)"/>
<path d="M0 0 C11.02692778 -0.60587515 11.02692778 -0.60587515 15.3125 2.0625 C17.50774662 5.88385523 17.0887894 7.80038373 16 12 C15.67 12.99 15.34 13.98 15 15 C15.88319294 18.15020361 15.88319294 18.15020361 17 21 C14.1875 21.3125 14.1875 21.3125 11 21 C9.11400657 18.61107499 8 17.08148442 8 14 C7.34 14 6.68 14 6 14 C6 16.31 6 18.62 6 21 C4.02 21 2.04 21 0 21 C0 14.07 0 7.14 0 0 Z M6 5 C6 6.65 6 8.3 6 10 C7.65 9.67 9.3 9.34 11 9 C10.67 7.68 10.34 6.36 10 5 C8.68 5 7.36 5 6 5 Z " fill="#040404" transform="translate(243,185)"/>
<path d="M0 0 C3.44312714 2.1244827 4.71617547 3.14852641 6 7 C6.34222737 12.30452423 6.52076609 15.72478403 3 20 C-0.78041343 22.35064168 -3.57678079 22.2095343 -7.875 21.6015625 C-10 21 -10 21 -12.5 18.8125 C-14.76477402 14.56604871 -15.32191625 11.60958123 -14.375 6.875 C-11.33958637 0.52822605 -6.69413944 -1.36587492 0 0 Z M-7.8125 6.625 C-9.41039285 9.8207857 -8.95690908 11.61401404 -8 15 C-7.34 15.66 -6.68 16.32 -6 17 C-3.42459787 16.83492354 -3.42459787 16.83492354 -1 16 C0.50662097 12.98675805 0.17770373 10.31713623 0 7 C-0.66 6.34 -1.32 5.68 -2 5 C-5.90933583 4.55496999 -5.90933583 4.55496999 -7.8125 6.625 Z " fill="#030303" transform="translate(102,185)"/>
<path d="M0 0 C2.8100346 1.79363911 4.50940468 3.01880935 6 6 C6.64507919 11.20671061 6.9173523 14.81709835 3.625 19.0625 C-0.2061372 21.89024412 -2.21517221 22.46007959 -7 22 C-12.57894737 18.84210526 -12.57894737 18.84210526 -14 16 C-14.53118252 11.08003072 -14.75105553 7.22672403 -12.125 2.9375 C-8.43269676 -0.42901177 -4.85523688 -0.69759151 0 0 Z M-6 5 C-8.15705515 6.7564331 -8.15705515 6.7564331 -8.265625 8.875 C-8.26046875 9.57625 -8.2553125 10.2775 -8.25 11 C-8.25515625 11.70125 -8.2603125 12.4025 -8.265625 13.125 C-8.15705515 15.2435669 -8.15705515 15.2435669 -6 17 C-2.69316534 16.71016731 -2.69316534 16.71016731 0 15 C0.22918242 10.98342857 0.22918242 10.98342857 0 7 C-0.66 6.34 -1.32 5.68 -2 5 C-3.32 5 -4.64 5 -6 5 Z " fill="#020202" transform="translate(416,185)"/>
<path d="M0 0 C1.98 0 3.96 0 6 0 C6 2.97 6 5.94 6 9 C8.31 9 10.62 9 13 9 C13 6.03 13 3.06 13 0 C14.98 0 16.96 0 19 0 C19 6.93 19 13.86 19 21 C17.02 21 15.04 21 13 21 C13 18.36 13 15.72 13 13 C10.69 13 8.38 13 6 13 C6 15.64 6 18.28 6 21 C4.02 21 2.04 21 0 21 C0 14.07 0 7.14 0 0 Z " fill="#040404" transform="translate(64,185)"/>
<path d="M0 0 C11.53245501 -0.27458226 11.53245501 -0.27458226 15 2 C16.50934217 5.01868434 16.17510672 7.67297229 16 11 C15.01 12.485 15.01 12.485 14 14 C15.30096474 17.67480584 15.30096474 17.67480584 17 21 C14.69 21 12.38 21 10 21 C9.319375 19.5459375 9.319375 19.5459375 8.625 18.0625 C7.34213779 14.92920418 7.34213779 14.92920418 5 14 C5 16.31 5 18.62 5 21 C3.35 21 1.7 21 0 21 C0 14.07 0 7.14 0 0 Z M5 5 C5 6.65 5 8.3 5 10 C6.65 9.67 8.3 9.34 10 9 C10 7.68 10 6.36 10 5 C8.35 5 6.7 5 5 5 Z " fill="#040404" transform="translate(113,185)"/>
<path d="M0 0 C11.53245501 -0.27458226 11.53245501 -0.27458226 15 2 C16.50934217 5.01868434 16.17510672 7.67297229 16 11 C15.01 12.485 15.01 12.485 14 14 C15.30096474 17.67480584 15.30096474 17.67480584 17 21 C14.69 21 12.38 21 10 21 C9.319375 19.5459375 9.319375 19.5459375 8.625 18.0625 C7.34213779 14.92920418 7.34213779 14.92920418 5 14 C5 16.31 5 18.62 5 21 C3.35 21 1.7 21 0 21 C0 14.07 0 7.14 0 0 Z M5 5 C5 6.65 5 8.3 5 10 C6.65 9.67 8.3 9.34 10 9 C10 7.68 10 6.36 10 5 C8.35 5 6.7 5 5 5 Z " fill="#030303" transform="translate(381,185)"/>
<path d="M0 0 C2.5 1.8125 2.5 1.8125 4 4 C4 4.99 4 5.98 4 7 C2.02 7 0.04 7 -2 7 C-2.33 6.34 -2.66 5.68 -3 5 C-4.32 5 -5.64 5 -7 5 C-5.65284967 7.69430066 -4.24709508 7.91932594 -1.5 9.0625 C2.91280654 10.91280654 2.91280654 10.91280654 4 12 C4.46808511 17.38297872 4.46808511 17.38297872 2.625 19.8125 C-0.29379018 21.94546206 -1.88775463 22.09972861 -5.4375 21.75 C-6.61119141 21.64945313 -6.61119141 21.64945313 -7.80859375 21.546875 C-10.43754989 20.89080751 -11.43118977 20.19936097 -13 18 C-13 16.68 -13 15.36 -13 14 C-10.625 13.875 -10.625 13.875 -8 14 C-7.34 14.66 -6.68 15.32 -6 16 C-3.93125966 16.6425235 -3.93125966 16.6425235 -2 17 C-2.33 16.01 -2.66 15.02 -3 14 C-4.80077673 13.0534089 -4.80077673 13.0534089 -6.9375 12.4375 C-9.72850228 11.54093484 -10.87774645 11.12225355 -13 9 C-13.4375 6.625 -13.4375 6.625 -13 4 C-9.04260887 -0.57573349 -5.68857902 -0.72235924 0 0 Z " fill="#040404" transform="translate(55,185)"/>
<path d="M0 0 C2.31 0 4.62 0 7 0 C8.34394393 3.32916061 9.6756429 6.66299984 11 10 C11.46212891 11.15822266 11.46212891 11.15822266 11.93359375 12.33984375 C13.11128903 15.36578809 14 17.72330879 14 21 C12.02 21 10.04 21 8 21 C7.67 19.68 7.34 18.36 7 17 C5.02 17.33 3.04 17.66 1 18 C0.67 18.99 0.34 19.98 0 21 C-2.31 21 -4.62 21 -7 21 C-4.69 14.07 -2.38 7.14 0 0 Z M3 8 C2.67 9.65 2.34 11.3 2 13 C2.99 13 3.98 13 5 13 C4.67 11.35 4.34 9.7 4 8 C3.67 8 3.34 8 3 8 Z " fill="#030303" transform="translate(270,185)"/>
<path d="M0 0 C1.65 0 3.3 0 5 0 C5.33 1.98 5.66 3.96 6 6 C6.680625 5.01 7.36125 4.02 8.0625 3 C9.421875 1.3359375 9.421875 1.3359375 11 0 C14.8125 -0.375 14.8125 -0.375 18 0 C16.47291037 3.43595166 14.40072955 6.11912454 12 9 C13.56641751 13.30764815 15.68336156 17.06171464 18 21 C14.75 21.375 14.75 21.375 11 21 C8.625 18 8.625 18 7 15 C6.67 15 6.34 15 6 15 C5.67 16.98 5.34 18.96 5 21 C3.35 21 1.7 21 0 21 C0 14.07 0 7.14 0 0 Z " fill="#040404" transform="translate(313,185)"/>
<path d="M0 0 C3.03965634 1.8108591 4.60422231 2.90400023 5.8125 6.25 C5.874375 6.8275 5.93625 7.405 6 8 C4.02 8 2.04 8 0 8 C-0.33 7.34 -0.66 6.68 -1 6 C-2.65 6 -4.3 6 -6 6 C-7.14352916 8.28705831 -7.10334439 9.59264762 -7.0625 12.125 C-7.041875 13.40375 -7.02125 14.6825 -7 16 C-4.58354218 16.16687448 -4.58354218 16.16687448 -2 16 C-1.34 15.34 -0.68 14.68 0 14 C3.125 13.875 3.125 13.875 6 14 C5.06601394 17.14158949 4.33205059 18.7325148 1.75 20.8125 C-1.49878952 22.21538638 -3.49187143 22.43851607 -7 22 C-9.74039337 20.75436665 -11.4643868 19.68864555 -13.3125 17.3125 C-14.34579439 13.83687341 -14.57384972 10.55923458 -14 7 C-10.45364979 0.49835794 -7.35914136 -1.02915195 0 0 Z " fill="#030303" transform="translate(302,185)"/>
<path d="M0 0 C4.95 0 9.9 0 15 0 C15 1.65 15 3.3 15 5 C12.03 5 9.06 5 6 5 C6 6.32 6 7.64 6 9 C8.64 9 11.28 9 14 9 C14 10.32 14 11.64 14 13 C11.36 13 8.72 13 6 13 C6 14.32 6 15.64 6 17 C8.97 17 11.94 17 15 17 C15 18.32 15 19.64 15 21 C10.05 21 5.1 21 0 21 C0 14.07 0 7.14 0 0 Z " fill="#040404" transform="translate(156,185)"/>
<path d="M0 0 C5.94 0 11.88 0 18 0 C18 1.65 18 3.3 18 5 C16.02 5 14.04 5 12 5 C12 10.28 12 15.56 12 21 C10.02 21 8.04 21 6 21 C6 15.72 6 10.44 6 5 C4.02 5 2.04 5 0 5 C0 3.35 0 1.7 0 0 Z " fill="#050505" transform="translate(220,185)"/>
<path d="M0 0 C5.94 0 11.88 0 18 0 C18 1.65 18 3.3 18 5 C16.02 5 14.04 5 12 5 C12 10.28 12 15.56 12 21 C10.02 21 8.04 21 6 21 C6 15.72 6 10.44 6 5 C4.02 5 2.04 5 0 5 C0 3.35 0 1.7 0 0 Z " fill="#020202" transform="translate(133,185)"/>
<path d="M0 0 C0.33 0 0.66 0 1 0 C1 17.49 1 34.98 1 53 C-4.61 53 -10.22 53 -16 53 C-19.25 49.1875 -19.25 49.1875 -20.015625 47.04296875 C-21.44020166 44.08640688 -23.02618819 43.319861 -26 42 C-29.35292008 41.63931498 -29.35292008 41.63931498 -32.8125 41.8125 C-33.97394531 41.83957031 -35.13539063 41.86664063 -36.33203125 41.89453125 C-37.21246094 41.92933594 -38.09289062 41.96414062 -39 42 C-39 41.34 -39 40.68 -39 40 C-31.08 39.505 -31.08 39.505 -23 39 C-23 39.99 -23 40.98 -23 42 C-22.01 42 -21.02 42 -20 42 C-17.2650899 44.93026082 -15.27424305 47.17727085 -14 51 C-7.07 51.495 -7.07 51.495 0 52 C0 34.84 0 17.68 0 0 Z " fill="#1F6B62" transform="translate(165,28)"/>
<path d="M0 0 C5.94 0 11.88 0 18 0 C18 1.65 18 3.3 18 5 C17.34 4.67 16.68 4.34 16 4 C16.33 3.01 16.66 2.02 17 1 C14.6568787 1.25561323 12.32156597 1.59270772 10 2 C8.3501993 5.29960141 8.61741639 8.99127884 8.4375 12.625 C8.39431641 13.42679688 8.35113281 14.22859375 8.30664062 15.0546875 C8.20048543 17.0362511 8.09973145 19.01810271 8 21 C7.34 21 6.68 21 6 21 C6 15.72 6 10.44 6 5 C4.02 5 2.04 5 0 5 C0 3.35 0 1.7 0 0 Z " fill="#080808" transform="translate(133,185)"/>
<path d="M0 0 C7.13493991 -0.07624757 14.26977418 -0.12868289 21.4050293 -0.16479492 C23.83085049 -0.17985409 26.25664458 -0.20030562 28.68237305 -0.22631836 C32.17503562 -0.26282703 35.66733725 -0.27975553 39.16015625 -0.29296875 C40.23959 -0.30845261 41.31902374 -0.32393646 42.4311676 -0.33988953 C48.42201631 -0.3412197 52.69530202 0.15221477 58 3 C58 3.99 58 4.98 58 6 C57.443125 5.525625 56.88625 5.05125 56.3125 4.5625 C52.4837439 1.97550264 48.46229842 1.87657904 43.93432617 1.79467773 C42.95368698 1.77473251 41.97304779 1.75478729 40.96269226 1.73423767 C39.9166835 1.71752518 38.87067474 1.70081268 37.79296875 1.68359375 C36.71243729 1.66281265 35.63190582 1.64203156 34.51863098 1.62062073 C31.07498389 1.55535964 27.63126205 1.49634925 24.1875 1.4375 C21.84960172 1.39429249 19.51171093 1.35067749 17.17382812 1.30664062 C11.44929722 1.19970228 5.72469235 1.09789273 0 1 C0 0.67 0 0.34 0 0 Z " fill="#206B65" transform="translate(105,18)"/>
<path d="M0 0 C5.94 0 11.88 0 18 0 C18 6.93 18 13.86 18 21 C19.65 21 21.3 21 23 21 C23 21.66 23 22.32 23 23 C21.35 23.66 19.7 24.32 18 25 C17 24 17 24 16.88647461 21.77514648 C16.89171143 20.81680908 16.89694824 19.85847168 16.90234375 18.87109375 C16.90556641 17.83662109 16.90878906 16.80214844 16.91210938 15.73632812 C16.92048828 14.64771484 16.92886719 13.55910156 16.9375 12.4375 C16.94201172 11.34501953 16.94652344 10.25253906 16.95117188 9.12695312 C16.9630016 6.41794568 16.98093769 3.7089662 17 1 C11.39 1 5.78 1 0 1 C0 0.67 0 0.34 0 0 Z " fill="#1F6B61" transform="translate(82,85)"/>
<path d="M0 0 C1.33691635 4.01074904 0.25771126 5.52860463 -1.30859375 9.41796875 C-1.67695091 10.34383537 -1.67695091 10.34383537 -2.05274963 11.28840637 C-2.83887766 13.25842628 -3.63797257 15.22288517 -4.4375 17.1875 C-4.97286775 18.52244087 -5.50738358 19.85772373 -6.04101562 21.19335938 C-7.35081604 24.46626522 -8.67229601 27.73430962 -10 31 C-11.21881834 27.01738233 -10.46199417 24.89865112 -9 21 C-8.65023242 19.67088318 -8.30903983 18.33917261 -8 17 C-7.34 17 -6.68 17 -6 17 C-5.83177734 15.95779297 -5.83177734 15.95779297 -5.66015625 14.89453125 C-4.91553885 11.62967036 -3.75599912 8.76399795 -2.4375 5.6875 C-1.98246094 4.61886719 -1.52742187 3.55023438 -1.05859375 2.44921875 C-0.70925781 1.64097656 -0.35992187 0.83273438 0 0 Z " fill="#21887C" transform="translate(182,121)"/>
<path d="M0 0 C0.66 0 1.32 0 2 0 C2 7.92 2 15.84 2 24 C1.34 24 0.68 24 0 24 C-0.19632025 20.3754207 -0.38055978 16.75032733 -0.5625 13.125 C-0.64661133 11.57619141 -0.64661133 11.57619141 -0.73242188 9.99609375 C-0.78076172 9.00996094 -0.82910156 8.02382812 -0.87890625 7.0078125 C-0.9260376 6.09660645 -0.97316895 5.18540039 -1.02172852 4.24658203 C-1 2 -1 2 0 0 Z " fill="#1F8E84" transform="translate(340,101)"/>
<path d="M0 0 C0 3.20395416 -0.74335022 5.09399739 -2 8 C-2.66 8 -3.32 8 -4 8 C-3.855625 9.299375 -3.71125 10.59875 -3.5625 11.9375 C-3.48128906 12.66839844 -3.40007812 13.39929688 -3.31640625 14.15234375 C-3.18113386 16.01140229 -3.18113386 16.01140229 -2 17 C-1.95936168 18.66617115 -1.957279 20.33388095 -2 22 C-1.01 22 -0.02 22 1 22 C0.67 23.32 0.34 24.64 0 26 C-5.23286388 19.5855217 -5.81998841 15.27540935 -5 7 C-3.82483245 4.14220617 -2.19236891 2.19236891 0 0 Z " fill="#248C80" transform="translate(375,65)"/>
<path d="M0 0 C2.31 0 4.62 0 7 0 C6.505 0.7425 6.505 0.7425 6 1.5 C4.02452132 6.4386967 4.73291749 11.93166998 6 17 C4.35 15.35 2.7 13.7 1 12 C1.33 11.67 1.66 11.34 2 11 C2.04063832 9.33382885 2.042721 7.66611905 2 6 C1.01 5.67 0.02 5.34 -1 5 C-0.67 3.35 -0.34 1.7 0 0 Z " fill="#148B7F" transform="translate(83,41)"/>
<path d="M0 0 C4.66836735 3.73469388 4.66836735 3.73469388 5.5078125 6.9375 C5.74436718 11.10086235 5.29171377 12.63151945 2.625 16 C0 18 0 18 -2 18 C-2 16.35 -2 14.7 -2 13 C-0.35 12.34 1.3 11.68 3 11 C2.53199289 6.94393835 2.12046792 3.53411321 0 0 Z " fill="#1C6F68" transform="translate(107,107)"/>
<path d="M0 0 C0.66 0.33 1.32 0.66 2 1 C0.8125 3.9375 0.8125 3.9375 -1 7 C-3.6875 7.875 -3.6875 7.875 -6 8 C-6.33 7.01 -6.66 6.02 -7 5 C-10.63 4.34 -14.26 3.68 -18 3 C-18 2.34 -18 1.68 -18 1 C-12.60204011 2.15058556 -7.29012667 3.42421759 -2 5 C-1.34 3.35 -0.68 1.7 0 0 Z " fill="#1F8A7F" transform="translate(151,92)"/>
<path d="M0 0 C1.32 0.66 2.64 1.32 4 2 C2.68 2 1.36 2 0 2 C-0.103125 2.845625 -0.20625 3.69125 -0.3125 4.5625 C-1.0828854 8.41442701 -2.36274514 11.44075031 -4 15 C-3.01 15.33 -2.02 15.66 -1 16 C-0.67 17.65 -0.34 19.3 0 21 C-1.98 19.35 -3.96 17.7 -6 16 C-5.3739007 12.37384158 -4.38690533 9.15607632 -3 5.75 C-2.649375 4.87859375 -2.29875 4.0071875 -1.9375 3.109375 C-1 1 -1 1 0 0 Z " fill="#22887D" transform="translate(129,91)"/>
<path d="M0 0 C1.65 0 3.3 0 5 0 C4.67 2.31 4.34 4.62 4 7 C2.35 7.33 0.7 7.66 -1 8 C-0.67 5.36 -0.34 2.72 0 0 Z " fill="#070607" transform="translate(201,203)"/>
<path d="M0 0 C1.65 0 3.3 0 5 0 C4.67 2.31 4.34 4.62 4 7 C2.35 7.33 0.7 7.66 -1 8 C-0.67 5.36 -0.34 2.72 0 0 Z " fill="#040404" transform="translate(336,203)"/>
<path d="M0 0 C3.47548539 3.24378636 5.82682259 5.71405824 6.1953125 10.578125 C6.16050781 11.90070313 6.16050781 11.90070313 6.125 13.25 C6.10695313 14.14203125 6.08890625 15.0340625 6.0703125 15.953125 C6.03550781 16.96632813 6.03550781 16.96632813 6 18 C5.01 17.67 4.02 17.34 3 17 C3.66 17 4.32 17 5 17 C3.99806563 13.20696275 3.18975773 10.28463659 1 7 C1.33 6.34 1.66 5.68 2 5 C1.34 4.67 0.68 4.34 0 4 C0 2.68 0 1.36 0 0 Z " fill="#288A7E" transform="translate(401,65)"/>
<path d="M0 0 C-0.99 1.485 -0.99 1.485 -2 3 C-2.94875 2.938125 -3.8975 2.87625 -4.875 2.8125 C-6.421875 2.9053125 -6.421875 2.9053125 -8 3 C-10.42422186 5.88509913 -10.42422186 5.88509913 -12 9 C-12.66 8.67 -13.32 8.34 -14 8 C-13.01 5.36 -12.02 2.72 -11 0 C-9.54263913 -0.19491452 -8.08405407 -0.38069358 -6.625 -0.5625 C-5.81289062 -0.66691406 -5.00078125 -0.77132812 -4.1640625 -0.87890625 C-2 -1 -2 -1 0 0 Z " fill="#198B80" transform="translate(123,132)"/>
<path d="M0 0 C6.26802091 1.95875653 11.50005617 6.31838142 16 11 C15.67 11.66 15.34 12.32 15 13 C13.88625 11.8553125 13.88625 11.8553125 12.75 10.6875 C8.876338 6.90187577 6.44397879 4.75610816 1 4 C0.67 2.68 0.34 1.36 0 0 Z " fill="#23877E" transform="translate(389,86)"/>
<path d="M0 0 C0.99 0 1.98 0 3 0 C3.69670416 1.78810766 4.38211189 3.58062052 5.0625 5.375 C5.63677734 6.87160156 5.63677734 6.87160156 6.22265625 8.3984375 C7 11 7 11 6 13 C5.74605469 12.43410156 5.49210937 11.86820313 5.23046875 11.28515625 C4.71419922 10.18494141 4.71419922 10.18494141 4.1875 9.0625 C3.85105469 8.33160156 3.51460938 7.60070312 3.16796875 6.84765625 C2.06399866 4.66970511 2.06399866 4.66970511 -1 4 C-0.67 2.68 -0.34 1.36 0 0 Z " fill="#218A82" transform="translate(292,63)"/>
<path d="M0 0 C0.66 0.33 1.32 0.66 2 1 C2.55353075 12.70615034 2.55353075 12.70615034 -1 17 C-1.99 16.67 -2.98 16.34 -4 16 C-3.525625 15.505 -3.05125 15.01 -2.5625 14.5 C0.21405762 10.0575078 0 5.13147485 0 0 Z " fill="#228980" transform="translate(129,112)"/>
<path d="M0 0 C0.33 0 0.66 0 1 0 C1.47166615 7.24531618 1.38908827 12.06182175 -3 18 C-3.66 18.33 -4.32 18.66 -5 19 C-4.625 16.5625 -4.625 16.5625 -4 14 C-3.34 13.67 -2.68 13.34 -2 13 C-1.30662208 9.9600352 -1.30662208 9.9600352 -0.875 6.4375 C-0.62363281 4.64119141 -0.62363281 4.64119141 -0.3671875 2.80859375 C-0.24601562 1.88175781 -0.12484375 0.95492187 0 0 Z " fill="#27897E" transform="translate(407,104)"/>
<path d="M0 0 C2.64 0.99 5.28 1.98 8 3 C8.33 2.34 8.66 1.68 9 1 C9.99 1.33 10.98 1.66 12 2 C12 2.99 12 3.98 12 5 C10 6 10 6 7.6171875 5.22265625 C6.71226563 4.83980469 5.80734375 4.45695313 4.875 4.0625 C3.50988281 3.49208984 3.50988281 3.49208984 2.1171875 2.91015625 C1.41851562 2.60980469 0.71984375 2.30945313 0 2 C0 1.34 0 0.68 0 0 Z " fill="#1E897E" transform="translate(106,147)"/>
<path d="M0 0 C0.66 0 1.32 0 2 0 C1.36843005 5.05255964 -0.13459373 9.29593201 -2 14 C-3.21881834 10.01738233 -2.46199417 7.89865112 -1 4 C-0.65023242 2.67088318 -0.30903983 1.33917261 0 0 Z " fill="#188C83" transform="translate(174,138)"/>
<path d="M0 0 C5.29441695 -0.50423019 7.81413519 0.81076967 12 4 C11.67 4.66 11.34 5.32 11 6 C10.46375 5.525625 9.9275 5.05125 9.375 4.5625 C6.57611409 2.72112769 4.27428111 2.50933262 1 2 C0.67 1.34 0.34 0.68 0 0 Z " fill="#1B8B7E" transform="translate(350,95)"/>
<path d="M0 0 C0.66 0 1.32 0 2 0 C2 0.99 2 1.98 2 3 C2.5775 3.268125 3.155 3.53625 3.75 3.8125 C6.0325868 5.01719859 7.9737942 6.40798115 10 8 C9.67 8.99 9.34 9.98 9 11 C8.29875 10.2575 7.5975 9.515 6.875 8.75 C4.02281994 6.02182777 1.3236937 4.08697046 -2 2 C-1.34 1.34 -0.68 0.68 0 0 Z " fill="#238E84" transform="translate(383,94)"/>
<path d="M0 0 C1.98 0.495 1.98 0.495 4 1 C2.68 4.3 1.36 7.6 0 11 C-1.04973814 6.80104745 -0.72795155 4.20594226 0 0 Z " fill="#258477" transform="translate(451,63)"/>
<path d="M0 0 C2.7972908 2.06756277 3.02692273 3.14440371 3.6875 6.6875 C3.790625 7.780625 3.89375 8.87375 4 10 C2 8.375 2 8.375 0 6 C-0.25 2.75 -0.25 2.75 0 0 Z " fill="#1C6B63" transform="translate(92,47)"/>
<path d="M0 0 C1.515625 1.3125 1.515625 1.3125 3 3 C2.73066742 6.23199091 2.02471429 8.92585714 1 12 C0 11 0 11 -0.09765625 8.49609375 C-0.08605469 7.48675781 -0.07445312 6.47742188 -0.0625 5.4375 C-0.05347656 4.42558594 -0.04445312 3.41367188 -0.03515625 2.37109375 C-0.02355469 1.58863281 -0.01195312 0.80617187 0 0 Z " fill="#0A0A0A" transform="translate(176,193)"/>
<path d="M0 0 C2.01136276 2.55991624 3.62845496 5.04590299 5 8 C3.35 7.67 1.7 7.34 0 7 C-1.125 2.25 -1.125 2.25 0 0 Z " fill="#1B6F6B" transform="translate(54,87)"/>
<path d="M0 0 C0.66 0 1.32 0 2 0 C1.71758359 1.46015291 1.42373386 2.91809793 1.125 4.375 C0.96257812 5.18710938 0.80015625 5.99921875 0.6328125 6.8359375 C0 9 0 9 -2 11 C-2.19622241 6.78121808 -1.80230168 3.82989106 0 0 Z " fill="#268F82" transform="translate(447,77)"/>
<path d="M0 0 C0.66 0 1.32 0 2 0 C2.1875 3.375 2.1875 3.375 2 7 C1.01 7.66 0.02 8.32 -1 9 C-0.67 6.03 -0.34 3.06 0 0 Z " fill="#118D7C" transform="translate(75,82)"/>
<path d="M0 0 C3.63 0 7.26 0 11 0 C11 0.33 11 0.66 11 1 C10.04287109 1.07347656 10.04287109 1.07347656 9.06640625 1.1484375 C8.24011719 1.22320312 7.41382813 1.29796875 6.5625 1.375 C5.73878906 1.44460937 4.91507812 1.51421875 4.06640625 1.5859375 C3.04353516 1.79089844 3.04353516 1.79089844 2 2 C1.67 2.66 1.34 3.32 1 4 C0.67 2.68 0.34 1.36 0 0 Z " fill="#16887E" transform="translate(409,63)"/>
<path d="M0 0 C1.1875 1.5625 1.1875 1.5625 2 4 C0.625 7.75 0.625 7.75 -1 11 C-2.23825459 7.28523623 -1.70587257 4.81171187 -1 1 C-0.67 0.67 -0.34 0.34 0 0 Z " fill="#1B8C81" transform="translate(169,150)"/>
</svg>
